:SAMPLES-PER-SECOND 30
:FULLY-SPECIFIED
:DEGREES
312
root  35.0051 38.9174 26.0027 -127.971 -83.5634 124.683
RightUpLeg  16.4281 -9.53753 -9.98965
RightLeg  15.0579 9.64192 2.97978
RightFoot  -20.6036 -0.281584 -1.75579
RightToes  0.000482159 0.542163 -0.142577
Spine  12.8154 -0.388933 2.17123
Spine1  4.42702 0.701574 -3.16339
HEad  -7.7136 2.21156 -3.78548
LeftShoulder1  8.96696 -13.4882 -46.0241
LeftArm  -9.54486 26.3041 -25.7192
LeftForeArm  36.2619 -11.816 -4.457
LeftHand  -0.25398 0.0180481 5.50724
RightShoulder  4.9285 8.5301 34.9942
RightArm  8.56343 4.0755 41.1036
RightForeArm  3.05678 31.0255 6.63106
RightHand  -2.59937 7.92753 -22.7957
LeftUpLeg  -17.1436 2.93271 0.454195
LeftLeg  -1.70037 22.6628 -6.74247
LeftFoot  0.262677 0.589919 -5.89081
LeftToes  1.06245e-005 4.65855e-005 -8.18503e-006
313
root  33.3382 38.6163 26.2996 -131.172 -83.1079 127.457
RightUpLeg  18.4409 -8.47833 -11.2132
RightLeg  17.0666 10.0819 2.99375
RightFoot  -20.6554 -0.116488 0.250684
RightToes  0.000482159 0.542163 -0.142577
Spine  12.1925 0.10027 1.21275
Spine1  4.7218 1.04965 -2.79362
HEad  -8.17166 1.58403 -2.5502
LeftShoulder1  8.87477 -13.3294 -45.979
LeftArm  -10.1835 27.6656 -25.7584
LeftForeArm  35.5741 -9.94836 -4.44873
LeftHand  -0.25398 0.0180481 5.50724
RightShoulder  4.91092 8.49612 34.9641
RightArm  8.80664 1.55661 40.168
RightForeArm  2.34347 29.5017 6.29004
RightHand  -2.56567 7.85202 -22.6342
LeftUpLeg  -18.6541 4.82719 -1.87514
LeftLeg  5.5056 17.3897 -3.76968
LeftFoot  3.50101 0.238694 -2.06371
LeftToes  1.06245e-005 4.65855e-005 -8.18503e-006
314
root  31.6049 38.3919 26.5627 -129.839 -82.1603 125.615
RightUpLeg  19.9527 -5.89074 -12.5444
RightLeg  19.7902 9.10488 3.14379
RightFoot  -19.6325 0.17371 4.31376
RightToes  0.000482159 0.542163 -0.142577
Spine  11.7203 0.745711 -0.903392
Spine1  4.56238 1.36053 -2.14442
HEad  -7.83577 0.660725 -1.20303
LeftShoulder1  8.73463 -13.0217 -46.0985
LeftArm  -9.93656 29.024 -25.2812
LeftForeArm  34.9796 -9.15373 -4.47346
LeftHand  -0.25398 0.0180481 5.50724
RightShoulder  4.92898 8.44261 35.2929
RightArm  9.04189 -1.8414 39.2581
RightForeArm  1.31136 26.8353 5.66431
RightHand  -2.51733 7.72912 -22.4243
LeftUpLeg  -19.8576 10.892 -6.46166
LeftLeg  12.2144 7.7388 -0.574922
LeftFoot  6.15927 -0.261975 1.52121
LeftToes  1.06245e-005 4.65855e-005 -8.18503e-006
315
root  29.923 38.3304 26.8082 -126.14 -81.2192 121.333
RightUpLeg  19.7663 -3.34539 -13.8532
RightLeg  24.9463 7.35787 3.52293
RightFoot  -15.2901 0.202391 9.45671
RightToes  0.000482159 0.542163 -0.142577
Spine  11.7027 1.16084 -3.00032
Spine1  4.09966 1.52708 -1.92375
HEad  -7.02925 -0.513256 0.0345971
LeftShoulder1  8.58904 -12.714 -46.1913
LeftArm  -9.4854 29.7571 -24.6073
LeftForeArm  34.6847 -8.78143 -4.55288
LeftHand  -0.25398 0.0180481 5.50724
RightShoulder  4.97129 8.37166 35.883
RightArm  8.60189 -5.51898 38.7416
RightForeArm  -0.0827081 22.7907 5.17787
RightHand  -2.53842 7.722 -22.6142
LeftUpLeg  -19.9061 14.0101 -9.64111
LeftLeg  17.3236 3.50995 1.51758
LeftFoot  4.85382 -0.403226 2.61231
LeftToes  1.06245e-005 4.65855e-005 -8.18503e-006
316
root  28.3682 38.4341 27.0581 -125.971 -80.4187 120.729
RightUpLeg  16.4146 -1.75161 -14.8016
RightLeg  33.7686 5.24319 3.48582
RightFoot  -5.79013 -0.604006 12.0836
RightToes  0.000482159 0.542163 -0.142577
Spine  11.7976 1.38697 -3.98345
Spine1  3.78762 1.74876 -2.37547
HEad  -6.28445 -1.5522 0.706626
LeftShoulder1  8.51351 -12.5854 -46.1496
LeftArm  -9.41635 29.5746 -24.2932
LeftForeArm  34.2913 -8.61685 -4.56944
LeftHand  -0.25398 0.0180481 5.50724
RightShoulder  5.01236 8.35611 36.2744
RightArm  4.28148 -8.62683 38.7316
RightForeArm  1.23197 17.2057 6.25117
RightHand  -2.57014 7.61305 -23.0687
LeftUpLeg  -18.2246 13.5028 -10.2047
LeftLeg  20.2951 4.88054 2.35023
LeftFoot  0.939025 -0.246571 2.23767
LeftToes  1.06245e-005 4.65855e-005 -8.18503e-006
